<svg xmlns="http://www.w3.org/2000/svg" version="1.1" xmlns:xlink="http://www.w3.org/1999/xlink" viewBox="0 0 200 200"><rect width="200" height="200" fill="url('#gradient')"></rect><defs><linearGradient id="gradient" gradientTransform="rotate(45 0.5 0.5)"><stop offset="0%" stop-color="#ffffff"></stop><stop offset="100%" stop-color="#ffffff"></stop></linearGradient></defs><g><g fill="#84cc16" transform="matrix(6.806499261447563,0,0,6.806499261447563,7.021114714476695,135.94151767494054)" stroke="#84cc16" stroke-width="0.2"><path d="M10.17 0L6.88 0Q6.70-0.32 6.56-0.95L6.56-0.95Q5.65 0.20 4.02 0.20L4.02 0.20Q2.53 0.20 1.48-0.71Q0.44-1.61 0.44-2.98L0.44-2.98Q0.44-4.70 1.71-5.58Q2.98-6.46 5.40-6.46L5.40-6.46L6.42-6.46L6.42-7.01Q6.42-8.47 5.16-8.47L5.16-8.47Q3.98-8.47 3.98-7.31L3.98-7.31L0.69-7.31Q0.69-8.85 2.00-9.80Q3.30-10.76 5.32-10.76Q7.34-10.76 8.52-9.78Q9.69-8.79 9.72-7.07L9.72-7.07L9.72-2.39Q9.74-0.94 10.17-0.17L10.17-0.17L10.17 0ZM4.81-2.15L4.81-2.15Q5.43-2.15 5.83-2.41Q6.24-2.68 6.42-3.01L6.42-3.01L6.42-4.70L5.46-4.70Q3.74-4.70 3.74-3.15L3.74-3.15Q3.74-2.71 4.04-2.43Q4.35-2.15 4.81-2.15ZM11.56-10.57L14.65-10.57L14.76-9.33Q15.88-10.76 17.77-10.76L17.77-10.76Q19.78-10.76 20.48-9.17L20.48-9.17Q21.55-10.76 23.58-10.76L23.58-10.76Q26.80-10.76 26.88-6.88L26.88-6.88L26.88 0L23.58 0L23.58-6.67Q23.58-7.48 23.31-7.85Q23.04-8.22 22.31-8.22L22.31-8.22Q21.34-8.22 20.86-7.35L20.86-7.35L20.87-7.22L20.87 0L17.57 0L17.57-6.65Q17.57-7.48 17.30-7.85Q17.04-8.22 16.30-8.22L16.30-8.22Q15.35-8.22 14.85-7.35L14.85-7.35L14.85 0L11.56 0L11.56-10.57Z"></path></g></g></svg>